<?xml version="1.0" standalone="no"?>
<!DOCTYPE svg PUBLIC "-//W3C//DTD SVG 20010904//EN"
 "http://www.w3.org/TR/2001/REC-SVG-20010904/DTD/svg10.dtd">
<svg version="1.0" xmlns="http://www.w3.org/2000/svg"
 width="2608.000000pt" height="2608.000000pt" viewBox="0 0 2608.000000 2608.000000"
 preserveAspectRatio="xMidYMid meet">
<metadata>
Created by potrace 1.14, written by Peter Selinger 2001-2017
</metadata>
<g transform="translate(0.000000,2608.000000) scale(0.100000,-0.100000)"
fill="#000000" stroke="none">
<path d="M13627 15874 c-1 -1 -36 -5 -77 -8 -227 -18 -415 -69 -695 -188 -111
-48 -125 -51 -190 -49 -207 8 -364 3 -475 -15 -75 -12 -222 -44 -233 -51 -6
-4 -20 -8 -32 -9 -11 -1 -33 -8 -50 -15 -32 -13 -42 -16 -65 -22 -8 -2 -31
-10 -50 -19 -19 -8 -60 -26 -90 -39 -57 -24 -191 -97 -200 -108 -3 -4 -18 -15
-35 -25 -112 -72 -329 -252 -290 -242 11 3 37 8 59 12 21 3 47 7 57 9 88 17
290 24 359 12 19 -3 56 -9 83 -12 26 -4 50 -11 53 -16 3 -5 9 -7 13 -5 8 5 76
-13 126 -35 17 -7 32 -13 35 -13 3 -1 35 -16 73 -34 65 -31 78 -44 57 -57 -13
-8 -65 -107 -62 -117 1 -5 -2 -8 -8 -8 -5 0 -10 -4 -10 -9 0 -5 -10 -30 -22
-57 -12 -27 -23 -51 -23 -54 -1 -3 -5 -12 -8 -20 -9 -21 -37 -102 -37 -107 0
-2 11 6 23 19 82 80 179 148 301 212 47 25 87 45 89 45 2 0 2 0 95 30 34 11
60 16 57 11 -3 -5 -22 -14 -43 -21 -20 -7 -47 -19 -59 -27 -13 -8 -23 -11 -23
-8 0 3 -18 -5 -40 -19 -22 -14 -44 -25 -50 -25 -5 0 -10 -4 -10 -8 0 -4 -15
-16 -32 -27 -81 -46 -245 -204 -341 -327 -95 -122 -277 -415 -277 -447 0 -10
116 7 190 29 19 5 37 10 40 10 3 0 5 -21 6 -48 1 -57 11 -180 18 -207 2 -11
12 -54 21 -95 10 -41 21 -79 25 -85 4 -5 13 -28 20 -50 39 -122 150 -293 268
-414 82 -83 194 -174 252 -203 14 -7 42 -23 63 -35 20 -13 37 -20 37 -17 0 4
7 1 16 -7 41 -34 245 -92 374 -106 259 -28 503 27 733 164 42 26 77 51 77 55
0 4 5 8 10 8 13 0 67 47 135 116 76 79 95 101 95 113 0 6 4 11 9 11 13 0 87
125 117 196 l13 32 -52 -29 c-29 -15 -108 -46 -177 -69 -229 -76 -330 -141
-426 -277 -48 -66 -94 -150 -94 -170 0 -34 -44 -15 -177 77 -109 76 -248 205
-318 295 -16 21 -35 43 -40 49 -6 6 -26 38 -46 71 -99 163 -145 275 -133 327
6 31 62 157 74 168 3 3 16 26 29 51 13 25 36 60 51 79 l27 33 -2 -54 c-1 -43
7 -101 24 -164 0 -3 2 -7 2 -10 23 -90 145 -254 195 -261 25 -4 214 192 276
286 57 86 133 237 138 275 0 3 8 24 16 47 9 24 17 51 19 61 2 10 6 26 9 35 7
21 15 80 21 151 3 30 7 56 9 58 2 2 19 6 37 8 30 3 74 11 169 30 14 3 39 8 55
11 17 2 45 9 64 14 19 5 37 7 40 5 2 -3 10 0 18 6 7 6 13 8 13 4 0 -4 7 -2 15
5 8 7 15 10 15 7 0 -4 19 1 43 9 23 9 49 17 57 19 53 12 191 73 301 132 84 45
242 147 275 178 7 5 31 26 55 45 69 55 210 198 274 279 59 73 59 74 39 90 -15
12 -19 23 -14 36 4 11 3 26 -2 33 -6 6 -7 12 -2 12 12 0 -52 57 -98 87 -21 14
-38 30 -38 34 0 5 -3 8 -7 7 -5 -1 -35 16 -68 37 -210 138 -503 251 -729 281
-22 3 -43 7 -46 9 -13 8 -356 26 -363 19z m293 -258 c14 -2 39 -7 55 -10 100
-17 138 -33 143 -59 4 -20 -47 -73 -98 -101 -46 -26 -160 -75 -160 -70 0 3 -8
1 -17 -5 -68 -35 -322 -32 -413 6 -8 3 -20 7 -26 8 -7 2 -34 14 -60 27 -41 21
-49 29 -49 52 0 24 8 33 51 56 43 23 69 34 124 55 3 1 12 5 20 8 8 4 26 9 40
11 14 3 54 11 90 19 62 14 240 16 300 3z m776 -290 c12 -2 44 -7 73 -11 28 -3
70 -12 93 -18 l41 -12 -109 -111 c-102 -104 -127 -126 -229 -204 -22 -16 -49
-37 -60 -46 -11 -9 -35 -23 -52 -32 -18 -9 -33 -19 -33 -23 0 -4 -12 -14 -27
-22 -123 -64 -225 -115 -260 -130 -47 -20 -208 -75 -238 -82 -55 -11 -65 -14
-84 -25 -12 -6 -21 -9 -21 -6 0 2 -30 -7 -67 -20 -38 -14 -72 -26 -78 -27 -5
-1 -12 -4 -15 -8 -4 -4 -92 -40 -110 -45 -17 -4 -80 -35 -80 -39 0 -3 11 -3
25 1 30 8 31 4 4 -77 -12 -35 -22 -71 -24 -79 -3 -14 -46 -119 -90 -217 -10
-24 -22 -43 -27 -43 -4 0 -8 -9 -8 -20 0 -11 -4 -20 -10 -20 -5 0 -10 -5 -10
-10 0 -13 -85 -139 -127 -189 -15 -19 -54 -61 -85 -94 l-58 -59 -22 28 c-84
106 -119 195 -113 294 1 36 6 76 9 90 4 14 9 35 12 48 7 35 61 145 84 173 11
13 42 46 68 72 47 48 47 49 12 30 -39 -20 -113 -74 -118 -85 -2 -5 -8 -8 -14
-8 -15 0 -179 -170 -213 -220 -16 -25 -36 -51 -42 -58 -7 -7 -13 -17 -13 -22
0 -5 -6 -15 -12 -22 -18 -18 -87 -162 -110 -228 -16 -47 -35 -115 -53 -195 -7
-30 -18 -154 -18 -204 0 -44 0 -44 -18 -23 -27 34 -78 177 -90 253 -8 53 -8
194 1 194 1 0 3 14 5 30 8 55 57 193 94 260 3 5 -8 0 -23 -13 -16 -12 -33 -22
-38 -22 -5 0 -46 -24 -91 -54 -85 -56 -202 -165 -213 -198 -9 -31 -24 -20 -25
20 -3 73 1 116 13 167 6 22 12 48 13 57 9 46 38 78 130 149 87 66 186 162 249
239 75 93 148 237 196 385 35 109 46 127 93 146 18 6 48 21 67 33 19 11 43 22
54 23 11 2 26 9 34 15 14 12 105 47 197 75 28 8 59 19 70 24 22 9 156 45 196
53 13 2 43 9 67 14 l43 10 -6 -27 c-8 -39 9 -49 82 -49 65 0 139 14 233 43 70
21 79 31 32 31 -85 2 -98 4 -82 14 14 9 105 38 142 45 9 2 25 8 35 13 10 6 21
10 26 10 7 0 41 7 87 18 14 3 33 7 43 7 9 1 17 4 17 7 0 3 10 7 23 8 12 1 40
4 62 7 22 3 69 8 105 11 36 3 66 7 68 9 4 4 295 -3 318 -9z"/>
<path d="M13522 13505 c-49 -33 -139 -117 -188 -176 -25 -30 -85 -152 -100
-204 -17 -56 -15 -83 6 -103 28 -26 60 -35 60 -16 0 8 5 14 10 14 6 0 9 3 8 8
-5 14 72 122 121 169 45 44 51 54 55 103 7 64 30 139 63 198 13 23 22 42 21
41 -2 0 -27 -16 -56 -34z"/>
<path d="M14237 12294 c-1 -1 -42 -4 -92 -7 -94 -6 -97 -6 -198 -32 -219 -55
-445 -209 -567 -385 -13 -19 -27 -37 -30 -40 -38 -35 -151 -303 -155 -370 -1
-14 -5 -35 -9 -47 -11 -35 -15 -221 -5 -291 14 -99 17 -114 44 -195 118 -361
416 -625 794 -702 126 -25 322 -23 420 5 17 5 34 9 36 9 3 1 6 1 8 2 1 0 13 2
25 5 34 6 172 64 202 84 14 10 35 21 48 24 12 4 22 12 22 17 0 5 5 9 11 9 6 0
16 6 24 13 7 6 26 21 41 32 55 38 173 166 223 241 28 42 51 79 51 83 0 4 -15
14 -32 22 -18 8 -81 41 -140 72 l-106 57 -45 -63 c-172 -240 -460 -348 -756
-283 -76 17 -201 69 -209 89 -2 4 -9 7 -15 7 -11 0 -36 20 -112 88 -95 86
-169 226 -200 377 -15 71 -12 203 5 288 18 87 68 204 112 262 57 76 167 172
234 205 38 19 72 40 76 45 4 6 8 7 8 3 0 -4 17 -1 38 7 127 49 356 47 477 -4
130 -56 177 -85 249 -154 49 -47 116 -132 116 -147 0 -26 34 -17 126 32 54 28
113 59 131 68 18 8 34 21 37 28 5 11 -50 103 -66 110 -5 2 -8 8 -8 13 0 18
-102 125 -180 189 -30 25 -57 48 -58 53 -2 4 -8 5 -13 1 -5 -3 -9 -1 -9 4 0
11 -200 112 -222 112 -9 0 -19 4 -22 9 -3 4 -24 11 -47 15 -23 4 -47 10 -53
13 -6 4 -24 8 -41 10 -16 2 -60 7 -98 11 -37 5 -68 8 -70 6z"/>
<path d="M9948 12284 c-3 -2 -27 -7 -53 -10 -53 -6 -192 -50 -212 -66 -7 -6
-13 -7 -13 -4 0 7 -65 -27 -157 -81 -24 -14 -43 -29 -43 -33 0 -5 -8 -11 -17
-14 -37 -12 -179 -160 -230 -241 -18 -27 -37 -55 -42 -61 -9 -11 -62 -121 -67
-139 -1 -5 -11 -35 -22 -65 -11 -30 -23 -71 -26 -90 -3 -19 -10 -57 -15 -85
-9 -46 -8 -279 2 -315 6 -24 31 -134 31 -142 1 -3 4 -10 9 -14 4 -4 7 -13 7
-21 0 -37 131 -273 164 -295 6 -4 8 -8 4 -8 -16 0 141 -150 207 -197 101 -73
267 -151 360 -169 11 -2 31 -6 45 -9 167 -34 370 -22 528 31 113 38 239 106
324 175 62 51 148 137 148 149 0 6 5 8 10 5 6 -3 10 1 10 9 0 9 5 16 10 16 6
0 10 7 10 15 0 9 7 18 15 21 8 4 15 12 15 19 0 8 6 20 14 28 32 31 115 221
132 302 16 71 22 111 18 117 -2 3 -1 9 4 12 8 5 8 191 -1 267 -7 61 -37 182
-48 193 -5 6 -9 18 -9 28 0 26 -84 185 -133 250 -147 197 -341 330 -572 395
-71 19 -173 31 -276 32 -70 0 -129 -2 -131 -5z m232 -328 c92 -10 268 -71 278
-98 2 -4 10 -8 18 -8 8 0 14 -4 14 -10 0 -5 6 -10 13 -10 14 0 114 -93 142
-134 11 -15 26 -34 33 -42 21 -22 80 -155 97 -219 28 -101 26 -315 -2 -385 -3
-8 -8 -23 -10 -33 -10 -56 -95 -196 -160 -265 -87 -92 -233 -176 -339 -196
-16 -3 -42 -8 -59 -11 -76 -16 -201 -10 -303 14 -60 14 -122 36 -122 42 0 5
-6 9 -13 9 -24 0 -132 75 -189 133 -88 87 -153 199 -185 320 -23 85 -24 349
-1 363 4 3 8 14 8 25 0 55 113 248 179 307 14 13 37 33 51 45 63 57 221 132
295 143 11 1 20 3 20 4 0 1 20 4 44 6 25 3 46 6 47 7 4 3 81 0 144 -7z"/>
<path d="M11502 12260 c-4 -3 -7 -460 -7 -1016 l0 -1010 168 -1 167 -1 0 428
0 427 140 -1 140 -1 110 -173 c61 -96 110 -175 110 -177 0 -1 27 -43 60 -93
33 -51 60 -96 60 -102 0 -5 5 -10 10 -10 6 0 10 -4 10 -9 0 -5 24 -46 53 -90
28 -45 69 -108 89 -140 l36 -58 179 0 c98 0 181 1 185 4 4 2 -8 26 -27 53 -19
28 -35 53 -35 57 0 4 -8 16 -18 27 -10 12 -83 120 -162 241 -79 121 -148 222
-152 223 -4 2 -8 8 -8 13 0 4 -38 66 -85 136 l-84 128 42 12 c106 32 211 105
279 195 39 52 84 145 101 209 14 55 16 213 3 272 -39 177 -189 359 -341 414
-16 6 -39 14 -50 19 -24 8 -30 10 -75 19 -40 9 -887 14 -898 5z m838 -314 c59
-19 98 -43 137 -84 24 -24 40 -48 37 -53 -3 -5 -1 -9 4 -9 14 0 33 -78 33
-136 0 -122 -57 -210 -170 -262 -55 -25 -61 -26 -291 -27 -129 -1 -241 1 -247
3 -10 3 -13 71 -13 291 l0 288 243 -2 c133 -1 253 -5 267 -9z"/>
<path d="M15941 12255 c-5 -5 -18 -37 -29 -70 -44 -126 -93 -261 -99 -275 -3
-8 -7 -17 -8 -20 -1 -3 -4 -12 -7 -20 -23 -61 -43 -116 -44 -120 -1 -6 -10
-30 -34 -95 -10 -27 -60 -164 -110 -304 -50 -140 -97 -270 -105 -290 -7 -20
-30 -83 -50 -141 -21 -58 -42 -116 -48 -130 -6 -14 -11 -28 -12 -32 -2 -5 -3
-9 -5 -10 -1 -2 -3 -10 -5 -18 -2 -8 -18 -53 -35 -100 -17 -47 -45 -123 -61
-170 -16 -47 -34 -94 -39 -105 -17 -39 -40 -106 -40 -114 0 -5 80 -8 177 -7
l177 1 21 55 c12 30 23 60 24 65 2 6 5 15 7 20 2 6 13 39 24 75 11 36 24 72
27 80 3 8 7 17 8 20 12 47 39 110 48 111 107 6 811 -1 818 -8 5 -5 11 -18 14
-29 2 -10 26 -83 54 -162 27 -78 50 -146 51 -150 1 -4 6 -18 11 -32 5 -14 11
-30 13 -36 6 -17 356 -15 356 2 0 13 -67 199 -82 228 -5 10 -12 30 -15 45 -2
14 -10 39 -18 56 -7 16 -37 95 -65 175 -51 143 -99 276 -115 315 -8 20 -12 34
-18 58 -2 6 -8 21 -14 32 -6 11 -15 36 -21 55 -11 39 -59 174 -72 205 -5 11
-18 47 -30 80 -11 33 -24 67 -27 75 -3 8 -7 17 -7 20 -3 11 -149 417 -160 445
-7 17 -18 44 -24 60 -6 17 -22 62 -36 100 l-26 70 -181 1 c-112 0 -183 -4
-188 -11z m213 -435 c2 -8 8 -26 13 -40 6 -14 36 -104 68 -200 32 -96 61 -184
66 -195 7 -17 122 -361 135 -403 2 -7 5 -16 6 -20 3 -7 -598 -12 -618 -5 -8 3
38 154 128 421 77 229 141 422 142 427 2 6 9 29 16 53 l13 43 14 -33 c8 -17
15 -39 17 -48z"/>
</g>
</svg>
