<?xml version="1.0" encoding="UTF-8"?>
<svg width="40px" height="40px" viewBox="0 0 40 40" version="1.1" xmlns="http://www.w3.org/2000/svg" xmlns:xlink="http://www.w3.org/1999/xlink">
    <!-- Generator: Sketch 64 (93537) - https://sketch.com -->
    <title>Icon-Architecture/32/Arch_Amazon-WorkDocs_32</title>
    <desc>Created with Sketch.</desc>
    <defs>
        <linearGradient x1="0%" y1="100%" x2="100%" y2="0%" id="linearGradient-1">
            <stop stop-color="#BD0816" offset="0%"></stop>
            <stop stop-color="#FF5252" offset="100%"></stop>
        </linearGradient>
    </defs>
    <g id="Icon-Architecture/32/Arch_Amazon-WorkDocs_32" stroke="none" stroke-width="1" fill="none" fill-rule="evenodd">
        <g id="Icon-Architecture-BG/32/Business-Applications" fill="url(#linearGradient-1)">
            <rect id="Rectangle" x="0" y="0" width="40" height="40"></rect>
        </g>
        <path d="M18.9574787,29.4907454 L19.957979,29.4907454 L19.957979,26.4892446 L18.9574787,26.4892446 L18.9574787,29.4907454 Z M11.5027514,19.9369685 L14.5042521,19.9369685 L14.5042521,18.9364682 L11.5027514,18.9364682 L11.5027514,19.9369685 Z M18.9574787,24.4882441 L19.957979,24.4882441 L19.957979,21.4867434 L18.9574787,21.4867434 L18.9574787,24.4882441 Z M19.957979,32.9994997 L19.957979,31.4917459 L18.9574787,31.4917459 L18.9574787,32.9994997 L7.00050025,32.9994997 L7.00050025,19.9369685 L9.50175088,19.9369685 L9.50175088,18.9364682 L7.00050025,18.9364682 L7.00050025,7.00050025 L18.9574787,7.00050025 L18.9574787,18.9364682 L16.5052526,18.9364682 L16.5052526,19.9369685 L19.4577289,19.9369685 L32.9994997,19.9369685 L32.9994997,32.9994997 L19.957979,32.9994997 Z M19.957979,7.64082041 L32.2191096,18.9364682 L19.957979,18.9364682 L19.957979,7.64082041 Z M34,19.4367184 C34,19.3006503 33.9429715,19.1665833 33.8389195,19.0695348 L19.7968984,6.13206603 C19.7018509,6.04502251 19.5807904,6 19.4577289,6 L6.50025013,6 C6.22311156,6 6,6.22311156 6,6.50025013 L6,33.4997499 C6,33.7768884 6.22311156,34 6.50025013,34 L33.4997499,34 C33.7758879,34 34,33.7768884 34,33.4997499 L34,19.4367184 Z" id="Amazon-WorkDocs_Icon_32_Squid" fill="#FFFFFF"></path>
    </g>
</svg>