<?xml version="1.0" encoding="UTF-8"?>
<svg width="40px" height="40px" viewBox="0 0 40 40" version="1.1" xmlns="http://www.w3.org/2000/svg" xmlns:xlink="http://www.w3.org/1999/xlink">
    <!-- Generator: Sketch 64 (93537) - https://sketch.com -->
    <title>Icon-Architecture/32/Arch_AWS-Managed-Services_32</title>
    <desc>Created with Sketch.</desc>
    <defs>
        <linearGradient x1="0%" y1="100%" x2="100%" y2="0%" id="linearGradient-1">
            <stop stop-color="#B0084D" offset="0%"></stop>
            <stop stop-color="#FF4F8B" offset="100%"></stop>
        </linearGradient>
    </defs>
    <g id="Icon-Architecture/32/Arch_AWS-Managed-Services_32" stroke="none" stroke-width="1" fill="none" fill-rule="evenodd">
        <g id="Icon-Architecture-BG/32/Management-Governance" fill="url(#linearGradient-1)">
            <rect id="Rectangle" x="0" y="0" width="40" height="40"></rect>
        </g>
        <path d="M22.336,29.772 L22.598,30.737 C21.614,31.005 20.584,31.141 19.538,31.141 C14.978,31.141 11.39,29.035 9.435,25.212 L10.325,24.757 C12.101,28.229 15.372,30.141 19.538,30.141 C20.496,30.141 21.437,30.017 22.336,29.772 L22.336,29.772 Z M33.709,21.075 L33,21.78 L31.782,20.554 C31.64,21.631 31.31,22.735 30.834,23.66 L29.945,23.203 C30.352,22.412 30.634,21.473 30.77,20.55 L29.206,21.816 L28.577,21.039 L31.05,19.035 C31.247,18.874 31.538,18.889 31.719,19.071 L33.709,21.075 Z M10.74,17.855 L8.74,19.866 C8.643,19.964 8.515,20.014 8.386,20.014 C8.259,20.014 8.133,19.966 8.035,19.87 L6,17.87 L6.701,17.157 L7.941,18.376 C8.496,12.103 13.565,7 19.51,7 C23.913,7 28.259,9.715 30.325,13.757 L29.435,14.212 C27.565,10.555 23.483,8 19.51,8 C14.152,8 9.573,12.565 8.961,18.227 L10.031,17.149 L10.74,17.855 Z M19.345,21.288 C18.149,21.288 17.176,20.315 17.176,19.119 C17.176,17.923 18.149,16.95 19.345,16.95 C20.541,16.95 21.515,17.923 21.515,19.119 C21.515,20.315 20.541,21.288 19.345,21.288 L19.345,21.288 Z M19.345,15.95 C17.598,15.95 16.176,17.372 16.176,19.119 C16.176,20.867 17.598,22.288 19.345,22.288 C21.093,22.288 22.515,20.867 22.515,19.119 C22.515,17.372 21.093,15.95 19.345,15.95 L19.345,15.95 Z M22.763,23.617 C22.601,23.435 22.328,23.396 22.123,23.527 C21.621,23.843 21.075,24.07 20.498,24.2 C20.26,24.254 20.096,24.472 20.109,24.716 L20.142,25.292 L18.548,25.292 L18.581,24.716 C18.596,24.472 18.431,24.253 18.192,24.199 C17.617,24.07 17.071,23.843 16.568,23.526 C16.362,23.396 16.092,23.435 15.929,23.616 L15.544,24.047 L14.417,22.92 L14.849,22.536 C15.031,22.373 15.069,22.102 14.939,21.895 C14.622,21.396 14.397,20.85 14.267,20.272 C14.213,20.034 13.99,19.869 13.75,19.883 L13.172,19.916 L13.172,18.322 L13.752,18.355 C14.015,18.368 14.214,18.204 14.268,17.967 C14.399,17.39 14.626,16.845 14.941,16.346 C15.072,16.139 15.034,15.869 14.852,15.706 L14.417,15.318 L15.544,14.19 L15.932,14.625 C16.094,14.807 16.365,14.844 16.571,14.715 C17.071,14.399 17.617,14.174 18.192,14.044 C18.431,13.99 18.595,13.772 18.581,13.528 L18.548,12.946 L20.142,12.946 L20.109,13.528 C20.096,13.772 20.26,13.99 20.498,14.044 C21.073,14.175 21.618,14.401 22.118,14.716 C22.324,14.847 22.597,14.809 22.758,14.626 L23.147,14.191 L24.273,15.318 L23.84,15.705 C23.657,15.867 23.619,16.138 23.75,16.345 C24.065,16.844 24.292,17.39 24.423,17.967 C24.477,18.204 24.678,18.378 24.939,18.355 L25.518,18.322 L25.518,19.916 L24.94,19.883 C24.695,19.869 24.477,20.034 24.424,20.272 C24.293,20.848 24.067,21.394 23.751,21.895 C23.62,22.101 23.658,22.372 23.841,22.535 L24.273,22.92 L23.147,24.047 L22.763,23.617 Z M25.355,23.253 C25.452,23.156 25.505,23.023 25.501,22.886 C25.497,22.748 25.437,22.619 25.334,22.527 L24.812,22.061 C25.011,21.692 25.171,21.305 25.291,20.904 L25.989,20.944 C26.117,20.957 26.261,20.904 26.361,20.809 C26.461,20.714 26.518,20.583 26.518,20.445 L26.518,17.793 C26.518,17.655 26.461,17.524 26.361,17.43 C26.261,17.335 26.131,17.293 25.989,17.294 L25.289,17.334 C25.169,16.933 25.009,16.546 24.811,16.179 L25.334,15.711 C25.437,15.62 25.497,15.49 25.501,15.353 C25.505,15.215 25.452,15.082 25.355,14.985 L23.48,13.109 C23.382,13.012 23.217,12.963 23.112,12.963 C22.975,12.967 22.845,13.027 22.753,13.13 L22.284,13.656 C21.916,13.458 21.53,13.297 21.131,13.177 L21.17,12.475 C21.178,12.337 21.129,12.203 21.034,12.103 C20.94,12.003 20.809,11.946 20.671,11.946 L18.019,11.946 C17.881,11.946 17.749,12.003 17.655,12.103 C17.561,12.203 17.512,12.337 17.52,12.475 L17.56,13.177 C17.159,13.296 16.774,13.456 16.405,13.654 L15.938,13.13 C15.846,13.027 15.716,12.967 15.578,12.963 C15.482,12.967 15.309,13.013 15.211,13.109 L13.336,14.985 C13.238,15.082 13.186,15.215 13.19,15.353 C13.193,15.49 13.254,15.62 13.357,15.711 L13.881,16.179 C13.682,16.547 13.522,16.933 13.401,17.334 L12.7,17.294 C12.568,17.293 12.43,17.335 12.328,17.43 C12.229,17.524 12.172,17.655 12.172,17.793 L12.172,20.445 C12.172,20.583 12.229,20.714 12.328,20.809 C12.43,20.904 12.582,20.957 12.7,20.944 L13.398,20.904 C13.519,21.306 13.679,21.693 13.878,22.062 L13.357,22.527 C13.254,22.619 13.193,22.748 13.19,22.886 C13.186,23.023 13.238,23.156 13.336,23.253 L15.211,25.128 C15.309,25.226 15.451,25.273 15.579,25.275 C15.716,25.271 15.846,25.21 15.938,25.108 L16.402,24.586 C16.773,24.786 17.159,24.946 17.56,25.066 L17.52,25.763 C17.512,25.9 17.561,26.035 17.655,26.135 C17.749,26.235 17.881,26.292 18.019,26.292 L20.671,26.292 C20.809,26.292 20.94,26.235 21.034,26.135 C21.129,26.035 21.178,25.9 21.17,25.763 L21.131,25.067 C21.532,24.947 21.919,24.787 22.289,24.587 L22.753,25.108 C22.845,25.21 22.975,25.271 23.111,25.275 C23.248,25.277 23.383,25.226 23.48,25.128 L25.355,23.253 Z M28.484,28.91 C28.19,29.217 27.699,29.227 27.392,28.932 C27.242,28.789 27.158,28.597 27.154,28.39 C27.15,28.184 27.227,27.988 27.37,27.839 C27.514,27.69 27.706,27.606 27.912,27.602 L27.928,27.602 C28.128,27.602 28.317,27.678 28.463,27.818 C28.612,27.961 28.696,28.153 28.7,28.359 C28.704,28.566 28.628,28.762 28.484,28.91 L28.484,28.91 Z M26.649,27.146 C25.972,27.851 25.994,28.976 26.698,29.653 C27.031,29.973 27.466,30.148 27.926,30.148 C27.938,30.148 27.95,30.147 27.962,30.147 C28.436,30.138 28.877,29.945 29.205,29.604 C29.533,29.262 29.709,28.814 29.7,28.34 C29.69,27.867 29.497,27.425 29.156,27.097 C28.45,26.42 27.327,26.441 26.649,27.146 L26.649,27.146 Z M31.012,30.214 L29.949,30.001 C29.811,29.974 29.669,30.004 29.555,30.087 L29.024,30.476 C28.913,30.558 28.84,30.683 28.824,30.821 L28.698,31.892 L27.111,31.89 L26.988,30.829 C26.972,30.691 26.899,30.567 26.789,30.484 L26.252,30.086 C26.139,30.003 25.996,29.971 25.857,29.998 L24.802,30.209 L24.313,28.699 L25.3,28.247 C25.427,28.188 25.524,28.08 25.567,27.947 L25.769,27.328 C25.812,27.195 25.797,27.05 25.729,26.929 L25.198,25.983 L26.482,25.052 L27.211,25.843 C27.307,25.946 27.458,26.008 27.582,26.004 L28.251,26 C28.39,25.999 28.522,25.941 28.615,25.839 L29.339,25.054 L30.622,25.987 L30.094,26.928 C30.025,27.049 30.011,27.193 30.053,27.325 L30.252,27.951 C30.295,28.085 30.392,28.194 30.52,28.253 L31.503,28.705 L31.012,30.214 Z M32.325,27.981 L31.138,27.437 L31.071,27.229 L31.712,26.09 C31.837,25.869 31.775,25.589 31.57,25.44 L29.567,23.983 C29.364,23.834 29.078,23.862 28.906,24.049 L28.027,25.001 L27.797,25.002 L26.917,24.047 C26.745,23.86 26.462,23.833 26.255,23.981 L24.25,25.435 C24.045,25.584 23.983,25.863 24.108,26.084 L24.75,27.227 L24.685,27.429 L23.492,27.976 C23.262,28.082 23.147,28.343 23.225,28.584 L23.987,30.94 C24.065,31.181 24.315,31.328 24.561,31.277 L25.835,31.022 L26.02,31.159 L26.169,32.447 C26.198,32.699 26.412,32.889 26.665,32.89 L29.142,32.892 L29.143,32.892 C29.397,32.892 29.609,32.702 29.64,32.45 L29.791,31.154 L29.969,31.024 L31.251,31.282 C31.502,31.333 31.746,31.187 31.825,30.946 L32.592,28.591 C32.67,28.35 32.556,28.087 32.325,27.981 L32.325,27.981 Z" id="AWS-Managed-Services_Icon_32_Squid" fill="#FFFFFF"></path>
    </g>
</svg>