<?xml version="1.0" encoding="UTF-8"?>
<svg width="40px" height="40px" viewBox="0 0 40 40" version="1.1" xmlns="http://www.w3.org/2000/svg" xmlns:xlink="http://www.w3.org/1999/xlink">
    <!-- Generator: Sketch 64 (93537) - https://sketch.com -->
    <title>Icon-Architecture/32/Arch_AWS-Compute-Optimizer_32</title>
    <desc>Created with Sketch.</desc>
    <defs>
        <linearGradient x1="0%" y1="100%" x2="100%" y2="0%" id="linearGradient-1">
            <stop stop-color="#B0084D" offset="0%"></stop>
            <stop stop-color="#FF4F8B" offset="100%"></stop>
        </linearGradient>
    </defs>
    <g id="Icon-Architecture/32/Arch_AWS-Compute-Optimizer_32" stroke="none" stroke-width="1" fill="none" fill-rule="evenodd">
        <g id="Icon-Architecture-BG/32/Management-Governance" fill="url(#linearGradient-1)">
            <rect id="Rectangle" x="0" y="0" width="40" height="40"></rect>
        </g>
        <path d="M22.024,24.031549 L22.024,23.027549 C23.802,22.781549 25.155,21.257549 25.155,19.389549 C25.155,17.522549 23.802,15.997549 22.024,15.752549 L22.024,14.747549 C24.361,14.998549 26.155,16.968549 26.155,19.389549 C26.155,21.810549 24.361,23.780549 22.024,24.031549 L22.024,24.031549 Z M23.026,8.605549 L22.024,8.605549 L22.024,7.605549 L23.554,7.605549 C23.692,7.605549 23.823,7.662549 23.918,7.761549 C24.012,7.862549 24.061,7.996549 24.053,8.133549 L23.972,9.593549 C24.808,9.819549 25.609,10.149549 26.361,10.579549 L27.333,9.487549 C27.423,9.385549 27.553,9.324549 27.691,9.320549 C27.814,9.313549 27.961,9.368549 28.059,9.466549 L31.234,12.633549 C31.331,12.730549 31.384,12.863549 31.38,13.001549 C31.377,13.138549 31.316,13.268549 31.213,13.360549 L30.125,14.333549 C30.556,15.082549 30.889,15.882549 31.117,16.720549 L32.574,16.636549 C32.709,16.635549 32.846,16.677549 32.946,16.771549 C33.046,16.865549 33.103,16.997549 33.103,17.135549 L33.109,21.618549 C33.109,21.756549 33.052,21.887549 32.953,21.982549 C32.853,22.077549 32.717,22.128549 32.581,22.118549 L31.128,22.037549 C30.866,23.011549 30.461,23.937549 29.92,24.794549 L29.075,24.261549 C29.629,23.380549 30.026,22.419549 30.253,21.405549 C30.307,21.167549 30.489,20.997549 30.77,21.015549 L32.108,21.090549 L32.104,17.665549 L30.761,17.742549 C30.514,17.758549 30.298,17.593549 30.245,17.354549 C30.013,16.338549 29.615,15.379549 29.06,14.505549 C28.928,14.298549 28.966,14.027549 29.149,13.864549 L30.153,12.967549 L27.727,10.548549 L26.832,11.553549 C26.67,11.737549 26.401,11.775549 26.192,11.644549 C25.314,11.091549 24.354,10.696549 23.34,10.468549 C23.102,10.414549 22.937,10.196549 22.951,9.952549 L23.026,8.605549 Z M16.608,32.352549 L15.032,31.406549 L18.332,28.931549 L17.732,28.132549 L14.106,30.851549 L11.026,29.003549 L11.026,25.331549 L13.291,23.959549 L12.773,23.104549 L10.48,24.493549 L8.001,23.501549 L8,20.491549 L10.76,18.821549 L10.243,17.965549 L8,19.323549 L8.001,17.485549 L10.503,16.114549 L13.052,17.801549 L13.052,19.262549 L11.757,20.114549 L12.306,20.949549 L13.585,20.109549 L15.013,20.838549 L15.013,22.531549 L16.013,22.531549 L16.013,20.531549 C16.013,20.343549 15.908,20.172549 15.741,20.086549 L14.052,19.225549 L14.052,17.801549 L16.853,15.948549 C16.994,15.856549 17.078,15.699549 17.078,15.531549 L17.078,12.531549 L16.078,12.531549 L16.078,15.262549 L13.552,16.932549 L11.026,15.263549 L11.026,11.399549 L13.011,10.075549 L13.011,12.531549 L14.011,12.531549 L14.011,9.408549 L16.031,8.062549 L20.001,9.654549 L20.001,19.153549 L17.796,17.664549 L17.236,18.493549 L20.001,20.360549 L20.001,21.812549 L15.725,25.137549 L16.338,25.926549 L20.001,23.078549 L20.001,30.782549 L16.608,32.352549 Z M20.687,8.852549 L16.159,7.036549 C16.003,6.973549 15.832,6.993549 15.695,7.084549 L10.249,10.715549 C10.11,10.808549 10.026,10.964549 10.026,11.131549 L10.026,15.235549 L7.26,16.750549 C7.1,16.838549 7.001,17.006549 7.001,17.189549 L7,20.062549 L7.001,23.840549 C7.001,24.044549 7.126,24.228549 7.315,24.304549 L10.026,25.388549 L10.026,29.286549 C10.026,29.462549 10.118,29.624549 10.269,29.715549 L16.321,33.345549 C16.399,33.393549 16.489,33.417549 16.578,33.417549 C16.649,33.417549 16.721,33.402549 16.788,33.370549 L20.711,31.555549 C20.887,31.473549 21.001,31.296549 21.001,31.101549 L21.001,9.316549 C21.001,9.112549 20.877,8.927549 20.687,8.852549 L20.687,8.852549 Z M31.153,31.519549 L24.11,31.519549 C23.983,31.519549 23.885,31.497549 23.819,31.456549 C23.496,31.252549 23.111,30.859549 23.111,30.143549 C23.111,29.256549 23.674,28.925549 24.148,28.803549 C24.378,28.743549 24.536,28.529549 24.522,28.290549 L24.504,27.993549 C24.504,27.211549 25.06,26.338549 25.743,26.049549 C26.057,25.915549 26.348,25.862549 26.612,25.862549 C27.364,25.862549 27.895,26.293549 28.127,26.527549 C28.382,26.783549 28.591,27.128549 28.73,27.524549 C28.792,27.698549 28.945,27.825549 29.128,27.852549 C29.315,27.878549 29.495,27.803549 29.604,27.654549 C29.762,27.441549 30.032,27.349549 30.275,27.430549 C30.56,27.523549 30.723,27.827549 30.725,28.217549 C30.688,28.484549 30.87,28.733549 31.135,28.779549 C31.614,28.861549 32.417,29.150549 32.417,30.159549 C32.417,31.335549 31.343,31.499549 31.153,31.519549 L31.153,31.519549 Z M31.696,27.887549 C31.573,27.085549 31.066,26.637549 30.587,26.480549 C30.184,26.348549 29.756,26.386549 29.392,26.564549 C29.236,26.286549 29.05,26.037549 28.836,25.822549 C27.885,24.865549 26.584,24.607549 25.352,25.128549 C24.315,25.569549 23.529,26.770549 23.505,27.967549 C22.625,28.340549 22.111,29.128549 22.111,30.143549 C22.111,31.376549 22.847,32.025549 23.286,32.302549 C23.515,32.446549 23.793,32.519549 24.11,32.519549 L31.176,32.519549 C31.188,32.519549 31.201,32.518549 31.212,32.517549 C31.975,32.462549 33.417,31.897549 33.417,30.159549 C33.417,28.870549 32.586,28.163549 31.696,27.887549 L31.696,27.887549 Z" id="AWS-Compute-Optimizer_Icon_32_Squid" fill="#FFFFFF"></path>
    </g>
</svg>