<?xml version="1.0" encoding="UTF-8"?>
<svg width="40px" height="40px" viewBox="0 0 40 40" version="1.1" xmlns="http://www.w3.org/2000/svg" xmlns:xlink="http://www.w3.org/1999/xlink">
    <!-- Generator: Sketch 64 (93537) - https://sketch.com -->
    <title>Icon-Architecture/32/Arch_Amazon-Pinpoint-Journey_32</title>
    <desc>Created with Sketch.</desc>
    <defs>
        <linearGradient x1="0%" y1="100%" x2="100%" y2="0%" id="linearGradient-1">
            <stop stop-color="#BD0816" offset="0%"></stop>
            <stop stop-color="#FF5252" offset="100%"></stop>
        </linearGradient>
    </defs>
    <g id="Icon-Architecture/32/Arch_Amazon-Pinpoint-Journey_32" stroke="none" stroke-width="1" fill="none" fill-rule="evenodd">
        <g id="Icon-Architecture-BG/32/Mobile" fill="url(#linearGradient-1)">
            <rect id="Rectangle" x="0" y="0" width="40" height="40"></rect>
        </g>
        <path d="M32.933,18.5 C32.933,17.673 32.26,17 31.433,17 C30.606,17 29.933,17.673 29.933,18.5 C29.933,19.327 30.606,20 31.433,20 C32.26,20 32.933,19.327 32.933,18.5 L32.933,18.5 Z M28.433,28 C27.606,28 26.933,28.673 26.933,29.5 C26.933,30.327 27.606,31 28.433,31 C29.26,31 29.933,30.327 29.933,29.5 C29.933,28.673 29.26,28 28.433,28 L28.433,28 Z M23.933,18 C23.933,16.897 23.036,16 21.933,16 C20.83,16 19.933,16.897 19.933,18 C19.933,19.103 20.83,20 21.933,20 C23.036,20 23.933,19.103 23.933,18 L23.933,18 Z M16.366,24.258 L14.289,26.31 L13.586,25.599 L15.658,23.553 C15.168,23.207 14.576,23 13.933,23 C12.279,23 10.933,24.346 10.933,26 C10.933,27.654 12.279,29 13.933,29 C15.587,29 16.933,27.654 16.933,26 C16.933,25.349 16.719,24.75 16.366,24.258 L16.366,24.258 Z M17.933,11 C19.036,11 19.933,10.103 19.933,9 C19.933,7.897 19.036,7 17.933,7 C16.83,7 15.933,7.897 15.933,9 C15.933,10.103 16.83,11 17.933,11 L17.933,11 Z M33.933,18.5 C33.933,19.878 32.812,21 31.433,21 C31.401,21 31.371,20.992 31.34,20.991 L29.427,27.208 C30.312,27.594 30.933,28.475 30.933,29.5 C30.933,30.878 29.812,32 28.433,32 C27.054,32 25.933,30.878 25.933,29.5 C25.933,28.122 27.054,27 28.433,27 C28.437,27 28.441,27.001 28.446,27.001 L30.368,20.752 C29.667,20.42 29.142,19.779 28.984,19 L24.748,19 C24.334,20.162 23.235,21 21.933,21 C21.293,21 20.704,20.795 20.216,20.454 L17.077,23.556 C17.605,24.234 17.933,25.076 17.933,26 C17.933,28.206 16.139,30 13.933,30 C11.727,30 9.933,28.206 9.933,26 C9.933,23.794 11.727,22 13.933,22 C14.854,22 15.692,22.325 16.369,22.85 L19.506,19.749 C19.15,19.255 18.933,18.654 18.933,18 C18.933,17.021 19.411,16.159 20.138,15.611 L20.065,15.644 L18.423,11.951 C18.262,11.977 18.101,12 17.933,12 C16.279,12 14.933,10.654 14.933,9 C14.933,7.346 16.279,6 17.933,6 C19.587,6 20.933,7.346 20.933,9 C20.933,10.131 20.296,11.106 19.37,11.617 L20.953,15.178 C21.261,15.07 21.587,15 21.933,15 C23.587,15 24.933,16.346 24.933,18 L28.984,18 C29.216,16.86 30.225,16 31.433,16 C32.812,16 33.933,17.122 33.933,18.5 L33.933,18.5 Z M20.395,22.577 C20.951,23.657 21.232,24.826 21.232,26.05 C21.232,30.25 17.815,33.667 13.616,33.667 C9.416,33.667 6,30.25 6,26.05 C6,21.851 9.416,18.434 13.616,18.434 C14.839,18.434 16.009,18.716 17.091,19.271 L16.634,20.161 C15.695,19.679 14.679,19.434 13.616,19.434 C9.968,19.434 7,22.402 7,26.05 C7,29.698 9.968,32.667 13.616,32.667 C17.264,32.667 20.232,29.698 20.232,26.05 C20.232,24.986 19.988,23.971 19.506,23.034 L20.395,22.577 Z" id="Amazon-Pinpoint-Journey_Icon_32_Squid" fill="#FFFFFF"></path>
    </g>
</svg>