<?xml version="1.0" encoding="UTF-8"?>
<svg width="40px" height="40px" viewBox="0 0 40 40" version="1.1" xmlns="http://www.w3.org/2000/svg" xmlns:xlink="http://www.w3.org/1999/xlink">
    <!-- Generator: Sketch 64 (93537) - https://sketch.com -->
    <title>Icon-Architecture/32/Arch_AWS-AppSync_32</title>
    <desc>Created with Sketch.</desc>
    <defs>
        <linearGradient x1="0%" y1="100%" x2="100%" y2="0%" id="linearGradient-1">
            <stop stop-color="#BD0816" offset="0%"></stop>
            <stop stop-color="#FF5252" offset="100%"></stop>
        </linearGradient>
    </defs>
    <g id="Icon-Architecture/32/Arch_AWS-AppSync_32" stroke="none" stroke-width="1" fill="none" fill-rule="evenodd">
        <g id="Icon-Architecture-BG/32/Mobile" fill="url(#linearGradient-1)">
            <rect id="Rectangle" x="0" y="0" width="40" height="40"></rect>
        </g>
        <path d="M33.5788116,14.527087 L31.8138319,13.7252034 C34.3509903,18.40631 33.6600408,24.411067 29.9174815,28.5842153 C27.3442212,31.4534397 23.6197128,33 19.8340317,33 C17.9507181,33 16.052362,32.6173052 14.2723398,31.8242986 L14.6855055,30.9257549 C19.6465026,33.1361131 25.6003008,31.9051774 29.1653594,27.9322534 C32.6812793,24.0116047 33.2950109,18.349103 30.8270477,13.9984159 L30.5221876,16.120991 L29.5293865,15.9829052 L30.0247842,12.5248438 C30.0478493,12.3699905 30.1421153,12.2358501 30.2815085,12.1608892 C30.4209018,12.0859284 30.5893772,12.0809968 30.7317789,12.1460943 L34,13.6315024 L33.5788116,14.527087 Z M10.8747538,12.0622566 C7.3467999,15.9967138 6.75312489,20.8760721 9.1879947,25.0748649 L9.47179542,22.8931102 L10.4666022,23.0183737 L10.0073063,26.5533686 C9.98724974,26.7101946 9.89097812,26.8482803 9.74857634,26.9242275 C9.67436696,26.9636805 9.59213495,26.9834071 9.50990294,26.9834071 C9.43569356,26.9834071 9.36148419,26.9676258 9.29228896,26.9350771 L6,25.3727355 L6.43522796,24.4850415 L8.17413416,25.3096106 C5.68410874,20.7942069 6.36202142,15.6031695 10.1226317,11.4102946 C13.9704882,7.12174607 20.3875936,5.79217767 25.7206404,8.16922504 L25.3074747,9.06776867 C20.3655313,6.8643148 14.4327925,8.09722319 10.8747538,12.0622566 L10.8747538,12.0622566 Z M14.4087246,23.4898378 C14.4087246,22.8102587 14.9703091,22.2569295 15.6622614,22.2569295 C16.3532108,22.2569295 16.9157981,22.8102587 16.9157981,23.4898378 C16.9157981,24.1704033 16.3532108,24.7227462 15.6622614,24.7227462 C14.9703091,24.7227462 14.4087246,24.1704033 14.4087246,23.4898378 L14.4087246,23.4898378 Z M19.6896243,17.5028347 C19.8921958,17.561028 20.1017872,17.6024537 20.3214068,17.6024537 C20.5279897,17.6024537 20.7245442,17.5659596 20.914079,17.5146706 L22.9929444,21.7154361 C22.5687475,22.0251427 22.2588732,22.4749077 22.1375309,22.9966745 L17.857455,22.9966745 C17.7391211,22.4867436 17.4392751,22.0478282 17.0311235,21.7381216 L19.6896243,17.5028347 Z M20.3214068,14.1493239 C21.0133591,14.1493239 21.5759464,14.7026532 21.5759464,15.3822323 C21.5759464,16.0627977 21.0133591,16.616127 20.3214068,16.616127 C19.6304574,16.616127 19.0678701,16.0627977 19.0678701,15.3822323 C19.0678701,14.7026532 19.6304574,14.1493239 20.3214068,14.1493239 L20.3214068,14.1493239 Z M25.5862612,23.4898378 C25.5862612,24.1704033 25.0246768,24.7227462 24.3327245,24.7227462 C23.641775,24.7227462 23.0791877,24.1704033 23.0791877,23.4898378 C23.0791877,22.8102587 23.641775,22.2569295 24.3327245,22.2569295 C25.0246768,22.2569295 25.5862612,22.8102587 25.5862612,23.4898378 L25.5862612,23.4898378 Z M17.857455,23.9830012 L22.1375309,23.9830012 C22.366176,24.9693279 23.2627055,25.7090729 24.3327245,25.7090729 C25.5772358,25.7090729 26.5890906,24.7138693 26.5890906,23.4898378 C26.5890906,22.2667927 25.5772358,21.2706027 24.3327245,21.2706027 C24.1873142,21.2706027 24.0459153,21.2873703 23.9085276,21.3130148 L21.7985745,17.0481381 C22.2729129,16.6407852 22.5787758,16.0489891 22.5787758,15.3822323 C22.5787758,14.1582008 21.5659181,13.1629972 20.3214068,13.1629972 C19.0778984,13.1629972 18.0650407,14.1582008 18.0650407,15.3822323 C18.0650407,16.0332079 18.356864,16.6141543 18.8121486,17.0205209 L16.1165431,21.3159738 C15.9691272,21.286384 15.8176999,21.2706027 15.6622614,21.2706027 C14.4187529,21.2706027 13.4058952,22.2667927 13.4058952,23.4898378 C13.4058952,24.7138693 14.4187529,25.7090729 15.6622614,25.7090729 C16.7322804,25.7090729 17.6288099,24.9693279 17.857455,23.9830012 L17.857455,23.9830012 Z" id="AWS-AppSync-Icon_32_Squid" fill="#FFFFFF"></path>
    </g>
</svg>