<?xml version="1.0" encoding="UTF-8"?>
<svg width="40px" height="40px" viewBox="0 0 40 40" version="1.1" xmlns="http://www.w3.org/2000/svg" xmlns:xlink="http://www.w3.org/1999/xlink">
    <!-- Generator: Sketch 64 (93537) - https://sketch.com -->
    <title>Icon-Architecture/32/Arch_Amazon-Pinpoint_32</title>
    <desc>Created with Sketch.</desc>
    <defs>
        <linearGradient x1="0%" y1="100%" x2="100%" y2="0%" id="linearGradient-1">
            <stop stop-color="#BD0816" offset="0%"></stop>
            <stop stop-color="#FF5252" offset="100%"></stop>
        </linearGradient>
    </defs>
    <g id="Icon-Architecture/32/Arch_Amazon-Pinpoint_32" stroke="none" stroke-width="1" fill="none" fill-rule="evenodd">
        <g id="Icon-Architecture-BG/32/Mobile" fill="url(#linearGradient-1)">
            <rect id="Rectangle" x="0" y="0" width="40" height="40"></rect>
        </g>
        <path d="M27.882454,10.5069797 C27.882454,11.4049681 28.6130718,12.1355859 29.510058,12.1355859 C30.4080464,12.1355859 31.137662,11.4049681 31.137662,10.5069797 C31.137662,9.60899134 30.4080464,8.87837354 29.510058,8.87837354 C28.6130718,8.87837354 27.882454,9.60899134 27.882454,10.5069797 L27.882454,10.5069797 Z M19.6452144,19.6462166 L22.4935214,16.7969074 C21.8029923,16.2577135 20.9440905,15.9229723 20.0020044,15.9229723 C17.755029,15.9229723 15.925979,17.7510201 15.925979,19.9979956 C15.925979,22.244971 17.755029,24.074021 20.0020044,24.074021 C22.2489799,24.074021 24.0770277,22.244971 24.0770277,19.9979956 C24.0770277,19.0549073 23.7422865,18.1970077 23.2020903,17.5054764 L20.3537834,20.3547856 L19.6452144,19.6462166 Z M26.0473907,14.6611783 L23.9106593,16.7979097 C24.6302527,17.6738492 25.0792469,18.779297 25.0792469,19.9979956 C25.0792469,22.798196 22.8022049,25.0762402 20.0020044,25.0762402 C17.201804,25.0762402 14.9237598,22.798196 14.9237598,19.9979956 C14.9237598,17.1987973 17.201804,14.9207531 20.0020044,14.9207531 C21.2217052,14.9207531 22.3261508,15.3707495 23.2020903,16.0893407 L25.3388217,13.9526093 C23.913666,12.6928198 22.048536,11.9221133 20.0020044,11.9221133 C15.5481423,11.9221133 11.9251199,15.5451357 11.9251199,19.9979956 C11.9251199,24.4518577 15.5481423,28.0748801 20.0020044,28.0748801 C24.4548643,28.0748801 28.0778867,24.4518577 28.0778867,19.9979956 C28.0778867,17.951464 27.3071802,16.086334 26.0473907,14.6611783 L26.0473907,14.6611783 Z M27.3242179,11.9672131 C27.0445988,11.5492877 26.8802348,11.0471759 26.8802348,10.5069797 C26.8802348,9.05676856 28.0598468,7.87615434 29.510058,7.87615434 C30.9602692,7.87615434 32.1398812,9.05676856 32.1398812,10.5069797 C32.1398812,11.9571909 30.9602692,13.1378051 29.510058,13.1378051 C28.9608419,13.1378051 28.4517145,12.9674279 28.0297802,12.6787887 L26.7559596,13.9526093 C28.1951464,15.5601689 29.0801059,17.6748515 29.0801059,19.9979956 C29.0801059,25.0040805 25.0080893,29.0770993 20.0020044,29.0770993 C14.9959195,29.0770993 10.9229007,25.0040805 10.9229007,19.9979956 C10.9229007,14.9919107 14.9959195,10.9198941 20.0020044,10.9198941 C22.3251485,10.9198941 24.4398311,11.8038514 26.0473907,13.2440404 L27.3242179,11.9672131 Z M34,20 C34,27.7190923 27.7190923,34 20,34 C12.2809077,34 6,27.7190923 6,20 C6,12.2809077 12.2809077,6 20,6 C21.9603408,6 23.8565395,6.39888324 25.6394874,7.18562531 L25.2335887,8.10265588 C23.5809292,7.3730403 21.8200301,7.0022192 20,7.0022192 C12.8321283,7.0022192 7.0022192,12.8331305 7.0022192,20 C7.0022192,27.1668695 12.8321283,32.9977808 20,32.9977808 C27.1668695,32.9977808 32.9977808,27.1668695 32.9977808,20 C32.9977808,18.1759611 32.6289641,16.4230797 31.9043597,14.7914668 L32.820388,14.3845658 C33.6031212,16.145465 34,18.0346481 34,20 L34,20 Z" id="Amazon-Pinpoint-Icon_32_Squid" fill="#FFFFFF"></path>
    </g>
</svg>