<?xml version="1.0" encoding="UTF-8"?>
<svg width="40px" height="40px" viewBox="0 0 40 40" version="1.1" xmlns="http://www.w3.org/2000/svg" xmlns:xlink="http://www.w3.org/1999/xlink">
    <title>Icon-Architecture/32/Arch_Standard-Storage-Class_32</title>
    <defs>
        <linearGradient x1="0%" y1="100%" x2="100%" y2="0%" id="linearGradient-1">
            <stop stop-color="#1B660F" offset="0%"></stop>
            <stop stop-color="#6CAE3E" offset="100%"></stop>
        </linearGradient>
    </defs>
    <g id="Icon-Architecture/32/Arch_Standard-Storage-Class_32" stroke="none" stroke-width="1" fill="none" fill-rule="evenodd">
        <g id="Rectangle" fill="url(#linearGradient-1)">
            <rect x="0" y="0" width="40" height="40"></rect>
        </g>
        <g id="Icon-Service/32/Standard-Storage-Class_32" transform="translate(4.000000, 4.000000)" fill="#FFFFFF">
            <path d="M26.532,17.391 L26.729,15.932 C28.821,17.131 28.864,17.626 28.8630149,17.64 C28.859,17.643 28.509,17.923 26.532,17.391 L26.532,17.391 Z M25.564,17.103 C22.722,16.206 18.904,14.531 16.723,13.504 C16.723,13.497 16.727,13.491 16.727,13.484 C16.727,12.821 16.187,12.281 15.524,12.281 C14.861,12.281 14.321,12.821 14.321,13.484 C14.321,14.148 14.861,14.687 15.524,14.687 C15.814,14.687 16.07,14.571 16.278,14.4 C17.547,14.994 22.075,17.076 25.428,18.113 L24.249,26.85 C24.249,27.716 20.575,29 15.5,29 C10.425,29 6.751,27.716 6.746,26.784 L4.283,8.563 C6.458,10.155 11.074,11 15.5,11 C19.926,11 24.543,10.155 26.718,8.563 L25.564,17.103 Z M4.003,6.489 C4.032,5.609 8.104,3 15.5,3 C22.895,3 26.97,5.609 27,6.489 L27,6.603 C26.81,8.231 22.137,10 15.5,10 C8.863,10 4.209,8.231 4.018,6.604 L4.003,6.489 Z M28,6.5 C28,4.665 23.131,2 15.5,2 C7.869,2 3,4.665 3,6.5 L3,6.567 L5.751,26.85 C5.751,28.896 10.773,30 15.5,30 C20.226,30 25.249,28.896 25.244,26.917 L26.396,18.39 C27.217,18.604 27.881,18.718 28.392,18.718 C28.985,18.718 29.386,18.574 29.628,18.285 C29.827,18.047 29.903,17.76 29.845,17.454 C29.708,16.716 28.797,15.919 26.89,14.87 L26.869,14.896 L28,6.567 L28,6.5 Z" id="Standard-Storage-Class_32_Squid"></path>
        </g>
    </g>
</svg>