<?xml version="1.0" encoding="UTF-8"?>
<svg width="40px" height="40px" viewBox="0 0 40 40" version="1.1" xmlns="http://www.w3.org/2000/svg" xmlns:xlink="http://www.w3.org/1999/xlink">
    <title>Icon-Architecture/32/Arch_Infrequent-Access-Storage-Class_32</title>
    <defs>
        <linearGradient x1="0%" y1="100%" x2="100%" y2="0%" id="linearGradient-1">
            <stop stop-color="#1B660F" offset="0%"></stop>
            <stop stop-color="#6CAE3E" offset="100%"></stop>
        </linearGradient>
    </defs>
    <g id="Icon-Architecture/32/Arch_Infrequent-Access-Storage-Class_32" stroke="none" stroke-width="1" fill="none" fill-rule="evenodd">
        <g id="Rectangle" fill="url(#linearGradient-1)">
            <rect x="0" y="0" width="40" height="40"></rect>
        </g>
        <g id="Icon-Service/32/Infrequent-Access-Storage-Class_32" transform="translate(4.000000, 4.000000)" fill="#FFFFFF">
            <path d="M4,6.489 L4,6.604 C4.191,8.231 8.863,10 15.5,10 C22.137,10 26.809,8.231 27,6.603 L27,6.489 C26.971,5.609 22.896,3 15.5,3 C8.104,3 4.029,5.609 4,6.489 L4,6.489 Z M26.729,15.932 L26.532,17.391 C28.509,17.923 28.859,17.643 28.8630149,17.64 C28.864,17.626 28.821,17.131 26.729,15.932 L26.729,15.932 Z M28,6.567 L26.869,14.895 L26.891,14.87 C28.797,15.919 29.708,16.716 29.846,17.454 C29.903,17.76 29.827,18.047 29.628,18.284 C29.386,18.573 28.985,18.718 28.393,18.718 C27.881,18.718 27.217,18.604 26.397,18.389 L26.304,19.083 L25.313,18.949 L25.427,18.113 C22.073,17.075 17.546,14.994 16.278,14.4 C16.07,14.571 15.814,14.687 15.524,14.687 C14.861,14.687 14.321,14.148 14.321,13.484 C14.321,12.821 14.861,12.281 15.524,12.281 C16.188,12.281 16.728,12.821 16.728,13.484 C16.728,13.491 16.724,13.497 16.724,13.504 C18.904,14.531 22.721,16.205 25.563,17.102 L26.717,8.563 C24.543,10.155 19.926,11 15.5,11 C11.074,11 6.458,10.155 4.283,8.563 L6.746,26.783 C6.751,27.716 10.425,29 15.5,29 C18.82,29 22.055,28.424 23.549,27.566 L24.047,28.433 C22.389,29.385 19.034,30 15.5,30 C10.773,30 5.751,28.896 5.751,26.85 L3,6.567 L3,6.5 C3,4.665 7.869,2 15.5,2 C23.131,2 28,4.665 28,6.5 L28,6.567 Z M29.146,27.146 L29.854,27.853 L27.854,29.853 C27.756,29.951 27.628,30 27.5,30 C27.372,30 27.244,29.951 27.146,29.853 L25.146,27.853 L25.854,27.146 L27,28.293 L27,21.707 L25.854,22.853 L25.146,22.146 L27.146,20.146 C27.342,19.951 27.658,19.951 27.854,20.146 L29.854,22.146 L29.146,22.853 L28,21.707 L28,28.293 L29.146,27.146 Z" id="Infrequent-Access-Storage-Class_32_Squid"></path>
        </g>
    </g>
</svg>