<svg data-v-423bf9ae="" xmlns="http://www.w3.org/2000/svg" viewBox="0 0 230 163" width="50" class="iconAbove"><!----><!----><!----><g
        id="6780b5ce-3756-4673-94f6-8a4a1974d8af" fill="#e0f2f1" transform="matrix(5.565862655639648,0,0,5.565862655639648,-4.1743950843811035,92.09091186523438)"><path d="M6.14 12.74C9.12 12.74 11.53 10.33 11.53 7.35C11.53 4.38 9.12 1.96 6.14 1.96C3.17 1.96 0.75 4.38 0.75 7.35C0.75 10.33 3.17 12.74 6.14 12.74ZM6.14 11.04C4.08 11.04 2.45 9.43 2.45 7.35C2.45 5.27 4.08 3.66 6.14 3.66C8.23 3.66 9.84 5.27 9.84 7.35C9.84 9.43 8.23 11.04 6.14 11.04ZM18.31 8.03C19.62 7.75 20.58 6.60 20.58 5.18C20.58 3.46 19.25 2.10 17.55 2.10L13.44 2.10L13.44 12.60L15.16 12.60L15.16 8.19L16.61 8.19L19.39 12.60L21.32 12.60ZM15.16 6.70L15.16 3.69L17.34 3.69C18.24 3.69 18.90 4.31 18.90 5.20C18.90 6.09 18.24 6.70 17.34 6.70ZM27.49 12.74C29.54 12.74 31.31 11.60 32.22 9.92L30.75 9.14C30.14 10.29 28.91 11.04 27.49 11.04C25.43 11.04 23.80 9.43 23.80 7.35C23.80 5.27 25.43 3.66 27.49 3.66C28.91 3.66 30.14 4.41 30.75 5.57L32.22 4.78C31.31 3.10 29.54 1.96 27.49 1.96C24.52 1.96 22.10 4.38 22.10 7.35C22.10 10.33 24.52 12.74 27.49 12.74ZM40.25 12.60L42.11 12.60L38.31 2.10L36.40 2.10L32.60 12.60L34.46 12.60L35.21 10.38L39.50 10.38ZM35.72 8.87L37.36 3.97L39.01 8.87Z"/></g><!----><g
        id="efd5f247-6252-411e-9951-a2ceb6a4bd3b" transform="matrix(1.1827926635742188,0,0,1.1827926635742188,56.63497543334961,-14.196879386901855)" stroke="none" fill="#e0f2f1"><path d="M62.5 68.7c-.7 1.1-1.3 2.3-1.7 3.6-.2.6-.3 1.2-.4 1.8 0 .6 0 1.2-.2 1.8-.2.4-.8.7-1.2 1.1-1.4 1.5-2.6 3.2-3.5 5.1-.3-.2-1.7-.8-1.8-1.2s.3-1.7.4-2.1c.4-1.4 1-2.7 1.7-3.9 1.8-2.6 4-4.7 6.7-6.2zM97 26.3c-7.1 9.5-17.4 16.1-29 18.4-2.1.4-4.3.8-6.4 1.2-.1 0-.5 0-.6.1s-.1 1.1-.1 1.4c-.1 1.5-.3 2.9-.7 4.3-1.4 5.6-4.3 10.7-8.6 14.6-.4.4-1.9 2.1-2.5 1.9-.3-.1-1-.8-1.2-1-.6-.5-1.1-1.1-1.6-1.8-1.9-2.7-2.8-6-2.3-9.3-1.1 1.3-2 2.8-2.8 4.3-.4.8-.8 1.7-1.2 2.5-.4.7-.6 1.4-.6 2.2.3 1.5.9 2.9 1.7 4.3.7 1.5 1.6 2.8 2.5 4.2 3.4 4.7 7.9 8.5 13 11.3 1.2-3.5 3.5-6.6 6.5-8.8 3.7-2.5 8.4-2.6 12.1-5.2C70.7 81.6 60 88.4 48.4 88.1 32 87.4 19 73.5 19.6 57c-1.9.6-3.9 1-5.9 1.2 4.6-9 11.3-18.7 21.3-22.1 1.6-.6 3.4-.9 5.1-.9-7 .1-14 3.7-18.8 8.6 1.1-3.4 2.6-6.7 4.5-9.7-4.3-2.5-9.2-3.9-14.2-3.9-3 .1-6 .5-8.9 1.1 2.9-2.6 6.1-5 9.3-7.1 6.5-3.8 13.8-5.9 21.2-6.3 1.8-.1 3.7-.1 5.5 0 .9.2 1.8.2 2.8.2.7-.2 1.4-.5 2.1-.8 3.4-1.5 6.8-2.8 10.4-3.8 11.7-3 24.1-1.4 34.6 4.4 1.8 1 3.5 2.1 5.1 3.3 1.1.8 4.1 2.5 2.5 4.1.9 0 1.2.4.8 1zm-41.2-3.5c5.6 3.1 12.5 2.8 17.9-.7.8-.5 2.9-1.8 1.4-2.8-1-.4-2.1-.7-3.2-.8-2.6-.5-5.2-.7-7.8-.3-1.8.3-3.5.7-5.1 1.4-1 .4-2 .8-3 1.4-.6.4-1 1.4-.2 1.8zm38.8 3.4c-4.8-1.1-9.7-1.4-14.6-.9-2.4.2-4.8.7-7.2 1.3-1.1.3-2.3.7-3.4 1-.7.2-2.3.5-2.7 1.1.6 0 1.2 0 1.8.1h1.8c-1.5.6-3 1-4.6 1.4-1.1.3-2.2.4-3.4.4-.5 0-1-.1-1.5-.3-.6-.4-.1-1.2.2-1.6-3.4.6-6.7 1.5-9.9 2.6-1.7.5-3.3 1.2-4.9 1.9-.8.3-1.5.7-2.2 1.1-.8.3-1.5.7-2.2 1.2-.4.4-.4 1-.6 1.6-.3.9-.6 1.9-.9 2.8-.6 1.7-1.4 3.4-2.4 5-1.9 3.1-4.4 5.9-7.3 8.1-.8.6-1.6 1.2-2.5 1.8-.7.6-1.2 1.5-1.3 2.5-.6 2.1-.8 4.3-.5 6.4C28.6 60 32 58 35.7 56c-1.2 2.3-2.1 4.8-2.5 7.4-.5 3.9.5 7.9 2.7 11.2-.3-11.1 5.5-21.5 15.2-27.1-.3.4-.6.8-1 1.1-.6.6-1.2 1.2-1.7 1.9-1.7 2.3-2.6 5.1-2.7 8 .1 1.6.5 3.1 1.3 4.5.4.7.8 1.3 1.3 1.9.2.2.5.7.7.8s.8-.5 1.1-.8c2.5-2.5 4.6-5.2 6.2-8.3 1.8-3.3 3.1-6.8 4-10.5l-1.3.3c.1-.4 1.1-.7 1.4-.8 1-.4 1.9-.8 2.9-1.2 1.9-.8 3.8-1.4 5.7-2 6.3-1.5 12.3-4.4 17.4-8.4 3.2-2.3 5.9-4.9 8.2-7.8z"/></g><!----></svg>