<svg data-v-fde0c5aa="" xmlns="http://www.w3.org/2000/svg" viewBox="0 0 300 300" class="font"><!----><defs><linearGradient
        gradientTransform="rotate(25)" id="3f19c76d-1425-49d2-becd-c6bd63a5d173" x1="0%" y1="0%" x2="100%" y2="0%"><stop
        offset="0%" stop-color="#182471" stop-opacity="1"/><stop offset="100%" stop-color="#2664C8" stop-opacity="1"/></linearGradient></defs><rect
        fill="url(#3f19c76d-1425-49d2-becd-c6bd63a5d173)" x="0" y="0" width="300px" height="300px" class="logo-background-square"/><defs><!----></defs><g
        id="026e729b-e3e3-4e6e-b8d2-1072a8e446b7" fill="#fff" transform="matrix(5.319149017333984,0,0,5.319149017333984,36.01063835674355,110.90425640336034)"><path d="M6.14 12.74C9.12 12.74 11.53 10.33 11.53 7.35C11.53 4.38 9.12 1.96 6.14 1.96C3.17 1.96 0.75 4.38 0.75 7.35C0.75 10.33 3.17 12.74 6.14 12.74ZM6.14 11.04C4.08 11.04 2.45 9.43 2.45 7.35C2.45 5.27 4.08 3.66 6.14 3.66C8.23 3.66 9.84 5.27 9.84 7.35C9.84 9.43 8.23 11.04 6.14 11.04ZM18.31 8.03C19.62 7.75 20.58 6.60 20.58 5.18C20.58 3.46 19.25 2.10 17.55 2.10L13.44 2.10L13.44 12.60L15.16 12.60L15.16 8.19L16.61 8.19L19.39 12.60L21.32 12.60ZM15.16 6.70L15.16 3.69L17.34 3.69C18.24 3.69 18.90 4.31 18.90 5.20C18.90 6.09 18.24 6.70 17.34 6.70ZM27.49 12.74C29.54 12.74 31.31 11.60 32.22 9.92L30.75 9.14C30.14 10.29 28.91 11.04 27.49 11.04C25.43 11.04 23.80 9.43 23.80 7.35C23.80 5.27 25.43 3.66 27.49 3.66C28.91 3.66 30.14 4.41 30.75 5.57L32.22 4.78C31.31 3.10 29.54 1.96 27.49 1.96C24.52 1.96 22.10 4.38 22.10 7.35C22.10 10.33 24.52 12.74 27.49 12.74ZM40.25 12.60L42.11 12.60L38.31 2.10L36.40 2.10L32.60 12.60L34.46 12.60L35.21 10.38L39.50 10.38ZM35.72 8.87L37.36 3.97L39.01 8.87Z"/></g><!----><!----></svg>